<svg xmlns="http://www.w3.org/2000/svg" viewBox="0 0 400 560" fill="none">
  <rect width="400" height="560" fill="white"/>
  <rect x="0" y="0" width="400" height="100" fill="#7c3aed"/>
  
  <text x="30" y="50" font-size="26" font-weight="bold" fill="white">赵六</text>
  <text x="30" y="75" font-size="13" fill="#e0d4fc">博士研究生 | 人工智能方向</text>
  
  <rect x="250" y="30" width="120" height="50" rx="8" fill="rgba(255,255,255,0.2)"/>
  <text x="310" y="55" font-size="11" fill="white" text-anchor="middle">136-0013-6000</text>
  <text x="310" y="72" font-size="11" fill="white" text-anchor="middle">zhao6@edu.cn</text>
  
  <text x="30" y="135" font-size="15" font-weight="bold" fill="#7c3aed">教育背景</text>
  <rect x="30" y="145" width="340" height="2" fill="#7c3aed"/>
  
  <text x="30" y="170" font-size="13" font-weight="bold" fill="#1e293b">清华大学 · 计算机科学与技术</text>
  <text x="280" y="170" font-size="11" fill="#94a3b8">2020-至今</text>
  <text x="30" y="188" font-size="12" fill="#64748b">博士研究生 | 研究方向：自然语言处理</text>
  
  <text x="30" y="215" font-size="13" font-weight="bold" fill="#1e293b">北京大学 · 人工智能</text>
  <text x="280" y="215" font-size="11" fill="#94a3b8">2016-2020</text>
  <text x="30" y="233" font-size="12" fill="#64748b">本科 | GPA 3.9/4.0 | 优秀毕业生</text>
  
  <text x="30" y="265" font-size="15" font-weight="bold" fill="#7c3aed">科研经历</text>
  <rect x="30" y="275" width="340" height="2" fill="#7c3aed"/>
  
  <text x="30" y="300" font-size="13" font-weight="bold" fill="#1e293b">大语言模型优化研究</text>
  <text x="280" y="300" font-size="11" fill="#94a3b8">2022-至今</text>
  <text x="30" y="318" font-size="12" fill="#64748b">提出新型注意力机制，在ACL 2023发表论文</text>
  <text x="30" y="336" font-size="12" fill="#64748b">模型推理速度提升35%，准确率提高2.1%</text>
  
  <text x="30" y="365" font-size="15" font-weight="bold" fill="#7c3aed">发表论文</text>
  <rect x="30" y="375" width="340" height="2" fill="#7c3aed"/>
  
  <text x="30" y="400" font-size="12" fill="#1e293b">[1] Zhao L. et al. "Efficient Attention Mechanism for LLMs"</text>
  <text x="30" y="418" font-size="11" fill="#64748b">ACL 2023 (CCF-A)</text>
  <text x="30" y="440" font-size="12" fill="#1e293b">[2] Zhao L. et al. "Cross-lingual Transfer Learning"</text>
  <text x="30" y="458" font-size="11" fill="#64748b">EMNLP 2022 (CCF-B)</text>
  
  <text x="30" y="490" font-size="15" font-weight="bold" fill="#7c3aed">技能特长</text>
  <rect x="30" y="500" width="340" height="2" fill="#7c3aed"/>
  <text x="30" y="525" font-size="12" fill="#1e293b">Python | PyTorch | TensorFlow | C++ | 英语流利</text>
</svg>
