<svg xmlns="http://www.w3.org/2000/svg" viewBox="0 0 400 560" fill="none">
  <rect width="400" height="560" fill="white"/>
  
  <circle cx="50" cy="50" r="35" fill="#e11d48"/>
  <text x="50" y="58" font-size="20" font-weight="bold" fill="white" text-anchor="middle">陈</text>
  
  <text x="100" y="40" font-size="24" font-weight="bold" fill="#0f172a">陈七</text>
  <text x="100" y="62" font-size="14" fill="#e11d48">UI/UX 设计师</text>
  <text x="100" y="80" font-size="12" fill="#94a3b8">5年经验 | 本科 | 北京</text>
  
  <rect x="30" y="100" width="340" height="80" rx="12" fill="#fef2f4"/>
  <text x="50" y="130" font-size="12" fill="#e11d48">电话</text>
  <text x="100" y="130" font-size="12" fill="#333">135-0013-5000</text>
  <text x="220" y="130" font-size="12" fill="#e11d48">邮箱</text>
  <text x="260" y="130" font-size="12" fill="#333">chen7@design.com</text>
  <text x="50" y="155" font-size="12" fill="#e11d48">作品集</text>
  <text x="110" y="155" font-size="12" fill="#333">behance.net/chen7</text>
  
  <text x="30" y="215" font-size="15" font-weight="bold" fill="#e11d48">工作经历</text>
  <circle cx="37" y="212" r="3" fill="#e11d48"/>
  <line x1="37" y1="220" x2="37" y2="310" stroke="#fecdd3" stroke-width="2"/>
  
  <circle cx="37" cy="225" r="4" fill="#e11d48"/>
  <text x="55" y="230" font-size="13" font-weight="bold" fill="#0f172a">字节跳动 · 高级设计师</text>
  <text x="280" y="230" font-size="11" fill="#94a3b8">2022-至今</text>
  <text x="55" y="250" font-size="12" fill="#475569">负责抖音电商设计系统搭建</text>
  <text x="55" y="268" font-size="12" fill="#475569">主导完成3个大型改版项目</text>
  
  <circle cx="37" cy="290" r="4" fill="#e11d48"/>
  <text x="55" y="295" font-size="13" font-weight="bold" fill="#0f172a">小米 · 设计师</text>
  <text x="280" y="295" font-size="11" fill="#94a3b8">2019-2022</text>
  
  <text x="30" y="335" font-size="15" font-weight="bold" fill="#e11d48">项目作品</text>
  <rect x="30" y="345" width="100" height="80" rx="8" fill="#fef2f4"/>
  <rect x="145" y="345" width="100" height="80" rx="8" fill="#fef2f4"/>
  <rect x="260" y="345" width="100" height="80" rx="8" fill="#fef2f4"/>
  <text x="80" y="390" font-size="11" fill="#e11d48" text-anchor="middle">电商设计</text>
  <text x="195" y="390" font-size="11" fill="#e11d48" text-anchor="middle">App设计</text>
  <text x="310" y="390" font-size="11" fill="#e11d48" text-anchor="middle">品牌设计</text>
  
  <text x="30" y="455" font-size="15" font-weight="bold" fill="#e11d48">技能工具</text>
  <rect x="30" y="465" width="70" height="28" rx="14" fill="#e11d48"/>
  <text x="65" y="484" font-size="11" fill="white" text-anchor="middle">Figma</text>
  <rect x="110" y="465" width="90" height="28" rx="14" fill="#fecdd3"/>
  <text x="155" y="484" font-size="11" fill="#e11d48" text-anchor="middle">Sketch</text>
  <rect x="210" y="465" width="110" height="28" rx="14" fill="#fecdd3"/>
  <text x="265" y="484" font-size="11" fill="#e11d48" text-anchor="middle">After Effects</text>
  
  <text x="30" y="525" font-size="15" font-weight="bold" fill="#e11d48">兴趣爱好</text>
  <text x="30" y="548" font-size="12" fill="#475569">摄影 | 插画 | 旅行 | 阅读设计类书籍</text>
</svg>
