<svg xmlns="http://www.w3.org/2000/svg" viewBox="0 0 400 560" fill="none">
  <rect width="400" height="560" fill="white"/>
  
  <rect x="0" y="0" width="400" height="8" fill="#0ea5e9"/>
  
  <text x="30" y="45" font-size="26" font-weight="bold" fill="#0f172a">王五</text>
  <text x="30" y="68" font-size="14" fill="#0ea5e9">全栈开发工程师</text>
  
  <text x="250" y="45" font-size="12" fill="#64748b">137-0013-7000</text>
  <text x="250" y="63" font-size="12" fill="#64748b">wangwu@dev.com</text>
  <text x="250" y="81" font-size="12" fill="#64748b">github.com/wangwu</text>
  
  <line x1="30" y1="95" x2="370" y2="95" stroke="#e2e8f0" stroke-width="1"/>
  
  <text x="30" y="125" font-size="14" font-weight="bold" fill="#0ea5e9">技术栈</text>
  <rect x="30" y="135" width="60" height="24" rx="12" fill="#e0f2fe" stroke="#0ea5e9" stroke-width="1"/>
  <text x="60" y="152" font-size="11" fill="#0ea5e9" text-anchor="middle">Vue3</text>
  <rect x="100" y="135" width="70" height="24" rx="12" fill="#e0f2fe" stroke="#0ea5e9" stroke-width="1"/>
  <text x="135" y="152" font-size="11" fill="#0ea5e9" text-anchor="middle">React</text>
  <rect x="180" y="135" width="40" height="24" rx="12" fill="#e0f2fe" stroke="#0ea5e9" stroke-width="1"/>
  <text x="200" y="152" font-size="11" fill="#0ea5e9" text-anchor="middle">Go</text>
  <rect x="230" y="135" width="60" height="24" rx="12" fill="#e0f2fe" stroke="#0ea5e9" stroke-width="1"/>
  <text x="260" y="152" font-size="11" fill="#0ea5e9" text-anchor="middle">Node</text>
  <rect x="300" y="135" width="70" height="24" rx="12" fill="#e0f2fe" stroke="#0ea5e9" stroke-width="1"/>
  <text x="335" y="152" font-size="11" fill="#0ea5e9" text-anchor="middle">Docker</text>
  
  <text x="30" y="195" font-size="14" font-weight="bold" fill="#0ea5e9">工作经历</text>
  <line x1="30" y1="205" x2="370" y2="205" stroke="#0ea5e9" stroke-width="2"/>
  
  <text x="30" y="230" font-size="13" font-weight="bold" fill="#0f172a">阿里巴巴 · 高级工程师</text>
  <text x="280" y="230" font-size="11" fill="#94a3b8">2022-至今</text>
  <text x="30" y="250" font-size="12" fill="#475569">负责核心交易系统架构设计与优化</text>
  <text x="30" y="268" font-size="12" fill="#475569">主导微服务改造，QPS从5000提升至20000</text>
  
  <text x="30" y="298" font-size="13" font-weight="bold" fill="#0f172a">美团 · 工程师</text>
  <text x="280" y="298" font-size="11" fill="#94a3b8">2020-2022</text>
  <text x="30" y="318" font-size="12" fill="#475569">参与外卖系统后端开发与维护</text>
  <text x="30" y="336" font-size="12" fill="#475569">优化订单处理流程，延迟降低40%</text>
  
  <text x="30" y="370" font-size="14" font-weight="bold" fill="#0ea5e9">项目经历</text>
  <line x1="30" y1="380" x2="370" y2="380" stroke="#0ea5e9" stroke-width="2"/>
  
  <text x="30" y="405" font-size="13" font-weight="bold" fill="#0f172a">分布式交易系统</text>
  <text x="30" y="425" font-size="12" fill="#475569">设计并实现高可用分布式交易系统，支持每日千万级</text>
  <text x="30" y="443" font-size="12" fill="#475569">交易量，99.99%可用性，数据零丢失。</text>
  
  <text x="30" y="477" font-size="14" font-weight="bold" fill="#0ea5e9">教育背景</text>
  <line x1="30" y1="487" x2="370" y2="487" stroke="#0ea5e9" stroke-width="2"/>
  <text x="30" y="510" font-size="13" font-weight="bold" fill="#0f172a">浙江大学</text>
  <text x="280" y="510" font-size="11" fill="#94a3b8">2016-2020</text>
  <text x="30" y="530" font-size="12" fill="#475569">软件工程 · 本科</text>
</svg>
